<?xml version="1.0" standalone="no"?>
<!DOCTYPE svg PUBLIC "-//W3C//DTD SVG 20010904//EN"
 "http://www.w3.org/TR/2001/REC-SVG-20010904/DTD/svg10.dtd">
<svg version="1.0" xmlns="http://www.w3.org/2000/svg"
 width="1024.000000pt" height="1024.000000pt" viewBox="0 0 1024.000000 1024.000000"
 preserveAspectRatio="xMidYMid meet">
<metadata>
Created by potrace 1.16, written by Peter Selinger 2001-2019
</metadata>
<g transform="translate(0.000000,1024.000000) scale(0.100000,-0.100000)"
fill="#ffffff" stroke="none">
<path d="M4683 7900 c-84 -44 -148 -102 -159 -145 -5 -20 5 -52 41 -128 220
-473 255 -557 255 -610 0 -50 -9 -69 -156 -328 -86 -150 -244 -429 -351 -618
-107 -190 -206 -363 -221 -385 -182 -269 -1370 -1985 -2177 -3143 -29 -41 -32
-43 -79 -40 l-49 2 -78 179 c-43 99 -82 183 -88 189 -11 11 -181 -66 -181 -83
0 -6 52 -129 115 -274 l115 -262 0 -252 c0 -138 4 -262 10 -276 5 -14 20 -32
34 -41 23 -15 78 -13 763 24 406 23 873 48 1038 57 165 9 308 19 319 23 12 4
-84 31 -265 74 -156 37 -315 76 -354 85 l-70 18 -3 46 c-3 53 -45 -43 690
1573 230 506 604 1328 831 1827 l412 908 46 0 46 0 48 -107 c26 -60 384 -848
795 -1753 1101 -2423 1080 -2377 1080 -2431 0 -40 -3 -48 -22 -52 -401 -91
-696 -163 -690 -168 4 -3 102 -12 217 -18 116 -7 334 -21 485 -31 151 -10 535
-33 854 -51 l578 -33 24 27 24 28 0 270 0 270 120 271 c96 216 118 274 108
283 -22 20 -158 77 -171 72 -7 -3 -32 -51 -56 -108 -25 -57 -62 -141 -83 -187
l-39 -82 -47 0 -47 1 -205 292 c-112 161 -323 463 -469 672 -358 516 -471 677
-728 1045 -810 1161 -811 1162 -1001 1500 -60 107 -204 363 -321 568 -186 328
-211 378 -211 417 0 35 28 104 145 357 80 172 145 326 145 341 0 39 -43 119
-82 152 -68 57 -140 70 -206 36 -57 -29 -83 -64 -172 -223 l-82 -148 -41 0
-42 0 -93 174 c-51 95 -100 181 -110 189 -18 17 -84 47 -101 47 -6 0 -45 -18
-88 -40z"/>
<path d="M4808 4763 c-174 -175 -321 -328 -327 -340 -8 -15 -11 -335 -11
-1107 0 -597 2 -1086 4 -1086 2 0 136 65 298 145 276 136 298 145 352 145 55
0 73 -8 350 -150 161 -82 296 -150 299 -150 11 0 8 2151 -3 2190 -7 27 -83
109 -327 353 l-318 317 -317 -317z"/>
</g>
</svg>
